<svg width="24" height="24" viewBox="0 0 24 24" fill="none" xmlns="http://www.w3.org/2000/svg">
  <path d="M20.9461 8.30447C20.9351 7.54747 20.7951 6.79647 20.5271 6.08847C20.0581 4.87947 19.1031 3.92347 17.8941 3.45547C17.1951 3.19247 16.4561 3.05147 15.7081 3.03547C14.7461 2.99247 14.4411 2.98047 11.9991 2.98047C9.55709 2.98047 9.24409 2.98047 8.28909 3.03547C7.54209 3.05147 6.80309 3.19247 6.10409 3.45547C4.89509 3.92347 3.93909 4.87947 3.47109 6.08847C3.20809 6.78747 3.06609 7.52647 3.05209 8.27347C3.00909 9.23647 2.99609 9.54147 2.99609 11.9835C2.99609 14.4255 2.99609 14.7375 3.05209 15.6935C3.06709 16.4415 3.20809 17.1795 3.47109 17.8805C3.94009 19.0885 4.89509 20.0445 6.10509 20.5125C6.80109 20.7845 7.54009 20.9385 8.29009 20.9625C9.25309 21.0055 9.55809 21.0185 12.0001 21.0185C14.4421 21.0185 14.7551 21.0185 15.7101 20.9625C16.4571 20.9475 17.1961 20.8065 17.8961 20.5435C19.1051 20.0745 20.0601 19.1185 20.5291 17.9105C20.7921 17.2105 20.9331 16.4725 20.9481 15.7235C20.9911 14.7615 21.0041 14.4565 21.0041 12.0135C21.0021 9.57147 21.0021 9.26147 20.9461 8.30447ZM11.9931 16.6015C9.43909 16.6015 7.37009 14.5325 7.37009 11.9785C7.37009 9.42447 9.43909 7.35547 11.9931 7.35547C14.5451 7.35547 16.6161 9.42447 16.6161 11.9785C16.6161 14.5325 14.5451 16.6015 11.9931 16.6015ZM16.8001 8.26247C16.2031 8.26247 15.7221 7.78047 15.7221 7.18447C15.7221 6.58847 16.2031 6.10647 16.8001 6.10647C17.3951 6.10647 17.8771 6.58847 17.8771 7.18447C17.8771 7.78047 17.3951 8.26247 16.8001 8.26247Z" fill="white" fill-opacity="0.65" />
  <path d="M11.9932 14.9826C13.6517 14.9826 14.9962 13.6381 14.9962 11.9796C14.9962 10.3211 13.6517 8.97656 11.9932 8.97656C10.3347 8.97656 8.99023 10.3211 8.99023 11.9796C8.99023 13.6381 10.3347 14.9826 11.9932 14.9826Z" fill="white" fill-opacity="0.65" />
</svg>