<svg width="20" height="14" viewBox="0 0 20 14" fill="none" xmlns="http://www.w3.org/2000/svg">
    <path fill-rule="evenodd" clip-rule="evenodd"
          d="M14.5833 10.143V10.6668C14.5833 12.1856 13.352 13.4168 11.8333 13.4168H3.58325C2.06447 13.4168 0.833252 12.1856 0.833252 10.6668V3.3335C0.833252 1.81471 2.06447 0.583496 3.58325 0.583496H11.8333C13.352 0.583496 14.5833 1.81471 14.5833 3.3335V3.8573L16.2676 2.65416C17.4811 1.78742 19.1666 2.65482 19.1666 4.146V9.85431C19.1666 11.3455 17.4811 12.2129 16.2676 11.3462L14.5833 10.143ZM3.58325 2.41683H11.8333C12.3395 2.41683 12.7499 2.82724 12.7499 3.3335V10.6668C12.7499 11.1731 12.3395 11.5835 11.8333 11.5835H3.58325C3.07699 11.5835 2.66659 11.1731 2.66659 10.6668V3.3335C2.66659 2.82724 3.07699 2.41683 3.58325 2.41683ZM14.5833 7.89002L17.3333 9.85431V4.146L14.5833 6.11029V7.89002Z"
          fill="#AECEFF"/>
</svg>
