<svg width="28" height="28" viewBox="0 0 28 28" fill="none" xmlns="http://www.w3.org/2000/svg">
    <path fill-rule="evenodd" clip-rule="evenodd"
          d="M1.16406 13.9993C1.16406 21.087 6.90974 26.8327 13.9974 26.8327C21.085 26.8327 26.8307 21.087 26.8307 13.9993C26.8307 6.9117 21.085 1.16602 13.9974 1.16602C6.90974 1.16602 1.16406 6.9117 1.16406 13.9993ZM8.16406 13.9993C8.16406 13.355 8.6864 12.8327 9.33073 12.8327H15.8475L13.1724 10.1576C12.7169 9.70203 12.7169 8.96334 13.1724 8.50772C13.628 8.05211 14.3668 8.05211 14.8223 8.50772L19.489 13.1744C19.9446 13.63 19.9446 14.3687 19.489 14.8243L14.8223 19.491C14.3668 19.9465 13.628 19.9465 13.1724 19.491C12.7169 19.0354 12.7169 18.2966 13.1724 17.8411L15.8475 15.166H9.33073C8.6864 15.166 8.16406 14.6437 8.16406 13.9993Z"
          fill="#D7FE39"/>
</svg>
