<svg width="25" height="24" viewBox="0 0 25 24" fill="none" xmlns="http://www.w3.org/2000/svg">
  <path d="M17 21H9.9C7.65979 21 6.53969 21 5.68404 20.564C4.93139 20.1805 4.31947 19.5686 3.93597 18.816C3.5 17.9603 3.5 16.8402 3.5 14.6V7.5M18.3 3H10.2C9.07989 3 8.51984 3 8.09202 3.21799C7.71569 3.40973 7.40973 3.71569 7.21799 4.09202C7 4.51984 7 5.07989 7 6.2L7 14.3C7 15.4201 7 15.9802 7.21799 16.408C7.40973 16.7843 7.71569 17.0903 8.09202 17.282C8.51984 17.5 9.07989 17.5 10.2 17.5H18.3C19.4201 17.5 19.9802 17.5 20.408 17.282C20.7843 17.0903 21.0903 16.7843 21.282 16.408C21.5 15.9802 21.5 15.4201 21.5 14.3L21.5 6.2C21.5 5.07989 21.5 4.51984 21.282 4.09202C21.0903 3.71569 20.7843 3.40973 20.408 3.21799C19.9802 3 19.4201 3 18.3 3Z" stroke="white" stroke-width="2" stroke-linecap="round" stroke-linejoin="round" />
</svg>
